<svg width="128" height="128" xmlns="http://www.w3.org/2000/svg">
 <!-- Created with Method Draw - http://github.com/duopixel/Method-Draw/ -->
 <g>
  <title>Symphony Logo</title>
  <g stroke="null" id="svg_5">
   <path stroke="null" id="svg_4" fill="#0098FF" d="m101.059013,46.181542l0,-18.464627c0,-3.781589 -2.046195,-7.336159 -5.337958,-9.275561c-4.928894,-2.904486 -15.605247,-7.774667 -31.721103,-7.774667c-16.116031,0 -26.792078,4.870181 -31.720928,7.774667c-3.292069,1.939401 -5.338045,5.493971 -5.338045,9.275561l0,27.729381l58.67685,16.985128l0,12.353297c0,1.672131 -1.050004,2.844198 -2.835011,3.715264l-18.782866,9.409786l-18.879991,-9.457911c-1.68775,-0.822941 -2.737754,-1.995008 -2.737754,-3.667139l0,-9.264973l-15.441228,-4.632268l0,13.897241c0,7.629592 4.376067,14.120804 11.3246,17.502692l25.734374,13.379676l25.638517,-13.331989c7.044214,-3.429576 11.420544,-9.920788 11.420544,-17.55038l0,-23.161776l-58.676806,-16.985521l0,-14.09941c4.192316,-2.022789 11.340043,-4.430098 21.617745,-4.430098c10.277833,0 17.425298,2.407309 21.617877,4.430098l0,11.01113l15.441184,4.632399z" clip-rule="evenodd" fill-rule="evenodd"/>
  </g>
 </g>
</svg>
